<?xml version="1.0" encoding="utf-8"?>
<!-- Generator: Adobe Illustrator 18.0.0, SVG Export Plug-In . SVG Version: 6.00 Build 0)  -->
<!DOCTYPE svg PUBLIC "-//W3C//DTD SVG 1.1//EN" "http://www.w3.org/Graphics/SVG/1.1/DTD/svg11.dtd">
<svg version="1.1" id="Layer_1" xmlns="http://www.w3.org/2000/svg" xmlns:xlink="http://www.w3.org/1999/xlink" x="0px" y="0px"
	 viewBox="0 0 512 438.9" enable-background="new 0 0 512 438.9" xml:space="preserve">
<rect x="36.6" y="0" width="36.6" height="73.1"/>
<rect x="237.7" y="0" width="36.6" height="219.4"/>
<rect x="438.9" y="0" width="36.6" height="146.3"/>
<polygon points="512,182.9 402.3,182.9 402.3,219.4 438.9,219.4 438.9,438.9 475.4,438.9 475.4,219.4 512,219.4 512,182.9 "/>
<polygon points="201.1,256 201.1,292.6 237.7,292.6 237.7,438.9 274.3,438.9 274.3,292.6 310.9,292.6 310.9,256 "/>
<polygon points="0,109.7 0,146.3 36.6,146.3 36.6,438.9 73.1,438.9 73.1,146.3 109.7,146.3 109.7,109.7 "/>
</svg>
