<?xml version="1.0" encoding="utf-8"?>
<!-- Generator: Adobe Illustrator 18.0.0, SVG Export Plug-In . SVG Version: 6.00 Build 0)  -->
<!DOCTYPE svg PUBLIC "-//W3C//DTD SVG 1.1//EN" "http://www.w3.org/Graphics/SVG/1.1/DTD/svg11.dtd">
<svg version="1.1" id="Layer_1" xmlns="http://www.w3.org/2000/svg" xmlns:xlink="http://www.w3.org/1999/xlink" x="0px" y="0px"
	 viewBox="0 0 153.1 76.5" enable-background="new 0 0 153.1 76.5" xml:space="preserve">
<g>
	<defs>
		<path id="SVGID_1_" d="M41.4,39.7l-6.1,11.2c1.1-0.4,2.1-0.4,3.3-0.5l12.1-0.7c1.6-0.1,2.9-0.7,3.4-1.6l3.6-6.6
			c0.2-0.4,0.1-0.9-0.3-1.2c-0.4-0.3-1.1-0.6-1.8-0.6H41.4z M21.8,59.9c0.1-0.2,0.2-0.3,0.3-0.5l12.2-22.5h28.8c1.3,0,2.5,0.4,3.3,1
			c0.8,0.7,1,1.5,0.6,2.2l-4.5,8.4c-0.9,1.8-3.5,3-6.5,3.1l-18.6,1c-1.9,0.1-3.6,1.2-4.5,2.9l-3.9,7.2c-0.5,1-1.6,1.6-2.7,1.6h-6.8
			l0,0h0L21.8,59.9z M0,0v76.5h153.1V39.8h-9.6c-3.2,0-6.1,1.7-7.6,4.4l-10.5,19.4c-0.3,0.5-0.8,0.8-1.3,0.8h-7.7L127.9,43
			c0.6-1.2,0.8-3.3-1.4-3.3h-9.2l-12.8,23.8c-0.3,0.5-0.8,0.8-1.3,0.8h-7.7l9.3-17.3L88.3,59.3c-0.5,0.4-1.3,0.6-2.2,0.6h-4.4
			c-1.5,0-2.8-0.7-3.1-1.6l-3-11l-8.8,16.3c-0.3,0.5-0.8,0.8-1.3,0.8h-7.7l13.9-25.8c0.5-1,2-1.6,3.7-1.6h4c0.5,0,1,0.2,1.1,0.6
			l4.4,16c0.1,0.2,0.3,0.4,0.5,0.4h0.5c0.2,0,0.4-0.1,0.6-0.2l21-15.8c0.8-0.6,2-0.9,4.5-0.9l41.1,0V0H0z"/>
	</defs>
	<clipPath id="SVGID_2_">
		<use xlink:href="#SVGID_1_"  overflow="visible"/>
	</clipPath>
	
		<linearGradient id="SVGID_3_" gradientUnits="userSpaceOnUse" x1="2.104662e-008" y1="76.494" x2="1" y2="76.494" gradientTransform="matrix(71.3868 -123.6456 -123.6456 -71.3868 9498.9834 5560.7344)">
		<stop  offset="0" style="stop-color:#006BAE"/>
		<stop  offset="0.864" style="stop-color:#00B49D"/>
		<stop  offset="1" style="stop-color:#00B49D"/>
	</linearGradient>
	<polygon clip-path="url(#SVGID_2_)" fill="url(#SVGID_3_)" points="-33.1,57.4 38.3,-66.3 186.2,19.1 114.8,142.8 	"/>
</g>
</svg>
