<?xml version="1.0" encoding="utf-8"?>
<!-- Generator: Adobe Illustrator 18.0.0, SVG Export Plug-In . SVG Version: 6.00 Build 0)  -->
<!DOCTYPE svg PUBLIC "-//W3C//DTD SVG 1.1//EN" "http://www.w3.org/Graphics/SVG/1.1/DTD/svg11.dtd">
<svg version="1.1" id="Layer_1" xmlns="http://www.w3.org/2000/svg" xmlns:xlink="http://www.w3.org/1999/xlink" x="0px" y="0px"
	 viewBox="0 0 826.3 162.5" enable-background="new 0 0 826.3 162.5" xml:space="preserve">
<g>
	<defs>
		<path id="SVGID_1_" d="M77.4,108.3v4.5h7.5v22.3h5.7v-22.3h7.5v-4.5H77.4z M121.2,108.3v26.8h18.9v-4.5H127v-6.7h11.3v-4.5H127
			v-6.5h13.2v-4.5H121.2z M222.6,108.3v11H213v-11h-5.7v26.8h5.7v-11.3h9.7v11.3h5.7v-26.8H222.6z M269.5,108.3v16.3l-11-16.3h-5.2
			v26.8h5.7v-16.3l11,16.3h5.2v-26.8H269.5z M344.5,108.3v26.8H363v-4.5h-12.7v-22.3H344.5z M474.3,135.1h5.7v-26.8h-5.7V135.1z
			 M504.9,108.3v26.8h18.9v-4.5h-13.2v-6.7H522v-4.5h-11.3v-6.5h13.2v-4.5H504.9z M166,111c-2.8,2.6-2.8,6.1-2.8,10.2v1
			c0,4.1,0,7.6,2.8,10.2c2.2,2,4.7,3,7.9,3c5.4,0,9.2-2.7,10.4-7.6h-5.9c-0.8,2.1-2.3,3-4.5,3c-1.5,0-2.8-0.6-3.6-1.5
			c-0.9-1.2-1.3-2.5-1.3-7.6c0-5.1,0.4-6.5,1.3-7.6c0.8-1,2.1-1.5,3.6-1.5c2.2,0,3.7,1,4.5,3h5.9c-1.2-4.8-5-7.6-10.4-7.6
			C170.7,108,168.2,109,166,111 M306.3,129.2c-0.9-1.1-1.3-2.4-1.3-7.5c0-5.1,0.4-6.4,1.3-7.6c0.8-1,2.2-1.6,3.7-1.6
			c1.5,0,2.9,0.6,3.7,1.6c0.9,1.1,1.3,2.4,1.3,7.6c0,5.1-0.4,6.4-1.3,7.5c-0.8,1-2.2,1.6-3.7,1.6
			C308.4,130.8,307.1,130.2,306.3,129.2 M302,111c-2.8,2.6-2.8,6.1-2.8,10.2v1c0,4.1,0,7.6,2.8,10.2c2.2,2.1,4.6,3,7.9,3
			s5.7-0.9,7.9-3c2.8-2.6,2.8-6.1,2.8-10.2l0-0.5l0-0.5c0-4.1,0-7.6-2.8-10.2c-2.2-2.1-4.6-3-7.9-3C306.6,108,304.2,108.9,302,111
			 M391.4,129.2c-0.9-1.1-1.3-2.4-1.3-7.5c0-5.1,0.4-6.4,1.3-7.6c0.8-1,2.2-1.6,3.6-1.6c1.5,0,2.9,0.6,3.7,1.6
			c0.9,1.1,1.3,2.4,1.3,7.6c0,5.1-0.4,6.4-1.3,7.5c-0.8,1-2.2,1.6-3.7,1.6C393.5,130.8,392.2,130.2,391.4,129.2 M387.1,111
			c-2.8,2.6-2.8,6.1-2.8,10.2v1c0,4.1,0,7.6,2.8,10.2c2.2,2.1,4.6,3,7.9,3c3.3,0,5.7-0.9,7.9-3c2.8-2.6,2.8-6.1,2.8-10.2v-1
			c0-4.1,0-7.6-2.8-10.2c-2.2-2.1-4.6-3-7.9-3C391.7,108,389.3,108.9,387.1,111 M431.5,111c-2.8,2.6-2.8,6.1-2.8,10.2l0,0.5l0,0.5
			c0,4.1,0,7.6,2.8,10.2c2.2,2,4.7,3,7.9,3c3.6,0,6.1-0.9,8.2-3c2-2,2.8-4.4,2.8-8.9v-3.1h-10.2v4.1h4.5v1.3c0,1.5-0.5,2.8-1.4,3.7
			c-0.9,0.9-2.2,1.4-3.9,1.4c-1.5,0-2.8-0.6-3.6-1.5c-0.9-1.1-1.3-2.4-1.3-7.6c0-5.1,0.4-6.4,1.3-7.6c0.8-1,2.1-1.6,3.6-1.6
			c2.6,0,4.2,1,5,3.2h5.8c-0.7-2.9-3.1-7.7-10.8-7.7C436.1,108,433.7,108.9,431.5,111 M546.5,116.2c0,2.3,0.6,3.9,1.8,5.1
			c1.2,1.2,3.1,2,5.6,2.3l3.7,0.5c1.1,0.1,1.9,0.5,2.5,1c0.6,0.6,0.9,1.4,0.9,2.3c0,1.3-0.7,3.4-5.2,3.4c-1.4,0-4.5-0.2-6.7-1.7
			l-3.5,3.3c2.5,2,5.6,2.9,10.2,2.9c5.4,0,10.9-2.5,10.9-8.1c0-2.6-0.6-4.4-2-5.6l0,0c-1.2-1.1-3-1.8-5.5-2.1l-3.7-0.5
			c-1.1-0.1-1.9-0.5-2.6-1.1c-0.6-0.5-0.9-1.2-0.9-2c0-1.7,1.4-3.5,4.5-3.5l0.2,0c1.3,0,3.5,0,5.5,1.4l3.4-3.2c-2.2-1.8-5-2.6-9-2.6
			C550.5,108,546.5,111.2,546.5,116.2 M677.8,100.7L626.5,152c-0.2,0.2-0.2,0.4-0.2,0.6v9.2c0,0.5,0.4,0.8,0.8,0.8h0
			c0.2,0,0.4-0.1,0.5-0.2l51.3-51.3c0.2-0.2,0.2-0.4,0.2-0.6v-9.2c0-0.5-0.4-0.8-0.8-0.8C678.2,100.4,678,100.5,677.8,100.7
			 M797.8,61.6l-7.7,7.7c-0.2,0.2-0.2,0.4-0.2,0.6V127c0,0.7,0.9,1.1,1.4,0.6l27.4-27.4c0.2-0.2,0.2-0.4,0.2-0.6v-22
			c0-0.7-0.9-1.1-1.4-0.6L800.6,94c-0.5,0.5-1.4,0.1-1.4-0.6V62.2c0-0.5-0.4-0.8-0.8-0.8C798.2,61.4,798,61.4,797.8,61.6
			 M749.6,45.9l-80.4,80.4c-0.2,0.2-0.2,0.4-0.2,0.6v19.5c0,0.7,0.9,1.1,1.4,0.6l80.4-80.4c0.2-0.2,0.2-0.4,0.2-0.6l0-19.5
			c0-0.5-0.4-0.8-0.8-0.8C750,45.6,749.8,45.7,749.6,45.9 M647.8,34.9l-1.2,3.3h15.8l-17,46.3h8.2c0.8,0,1.5-0.5,1.8-1.2l16.6-45
			h16.5l1.2-3.3H647.8z M26.6,38.1H44c0.8,0,1.5,0.4,1.9,1c0.4,0.6,0.5,1.4,0.3,2.2L41.1,55c-0.6,1.7-2.1,2.8-3.9,3l-16.6,1.4
			c-1.2,0.1-2.1,0.7-2.1,0.7L26.6,38.1z M18.3,34.9L0,84.4h8.2c0.8,0,1.5-0.5,1.8-1.2l6.3-17c0.6-1.5,1.9-2.5,3.5-2.7l23.1-2
			c3.4-0.3,6.3-2.5,7.4-5.7l5.6-15.1c0.5-1.4,0.3-2.8-0.5-4c-0.8-1.2-2.1-1.9-3.6-1.9H18.3z M73.1,46.4l0.3,23.3H55.5L73.1,46.4z
			 M75.5,34.9c-1.6,0-3.2,0.8-4.2,2.1L34.9,84.4h8.3c0.8,0,1.5-0.4,2-1l8-10.6h20.1l0.2,11.6h10l-1.4-47.7c0-1.1-0.9-1.9-1.9-1.9
			H75.5z M107.3,34.9L89,84.4h8.2c0.8,0,1.5-0.5,1.8-1.2l17.8-48.3H107.3z M158.6,34.9l-12.9,35.1l-11.9-33.6
			c-0.3-0.9-1.1-1.5-2.1-1.5h-6.1c-1.3,0-2.5,0.8-2.9,2l-17.5,47.5h8.2c0.8,0,1.5-0.5,1.8-1.2l12.5-34l11.7,33.5
			c0.4,1,1.3,1.7,2.4,1.7h5.8c1.3,0,2.5-0.8,2.9-2l17.5-47.5H158.6z M239.8,34.9c-1.4,0-2.8,0.6-3.7,1.7l-25.9,30.3l-4-31
			c-0.1-0.6-0.6-1-1.2-1h-5.8c-1.9,0-3.6,1.2-4.2,3l-17.2,46.6h8.2c0.8,0,1.5-0.5,1.8-1.2l10.9-29.5l2.6,19.9
			c0.2,1.6,1.6,2.9,3.3,2.9h4.9c1,0,1.9-0.4,2.5-1.2l19-22l-11.5,31.2h8.2c0.8,0,1.5-0.5,1.8-1.2l17.2-46.7c0.1-0.4,0.1-0.8-0.2-1.2
			c-0.2-0.3-0.6-0.4-1-0.4H239.8z M272.4,46.4l0.3,23.3h-17.9L272.4,46.4z M274.8,34.9c-1.6,0-3.2,0.8-4.2,2.1l-36.5,47.5h8.3
			c0.8,0,1.5-0.4,2-1l8-10.6h20.1l0.2,11.6h10l-1.5-49.5H274.8z M340.7,34.9l-12.9,35.1l-11.9-33.6c-0.3-0.9-1.1-1.5-2.1-1.5h-6.1
			c-1.3,0-2.5,0.8-2.9,2l-17.5,47.5h8.2c0.8,0,1.5-0.5,1.8-1.2l12.5-34l11.7,33.5c0.4,1,1.3,1.7,2.4,1.7h5.8c1.3,0,2.5-0.8,2.9-2
			l17.5-47.5H340.7z M375.3,46.4l0.3,23.3h-17.9L375.3,46.4z M377.7,34.9c-1.6,0-3.2,0.8-4.2,2.1l-36.5,47.5h8.3c0.8,0,1.5-0.4,2-1
			l8-10.6h20.1l0.2,11.6h10l-1.5-49.5H377.7z M410.6,34.9c-1.9,0-3.6,1.2-4.3,3l-15.7,42.6c-0.3,0.9-0.2,1.9,0.3,2.7
			c0.6,0.8,1.4,1.3,2.4,1.3h31.2c1.6,0,3-1,3.6-2.5l8.9-24.1h-19l-1.2,3.2h9.4l-7.4,20.1h-16.1c-0.7,0-1.3-0.3-1.7-0.9
			c-0.4-0.5-0.5-1.2-0.2-1.9l14-37.9c0.6-1.5,2-2.5,3.6-2.5h25.9l1.2-3.2H410.6z M455.8,34.9c-1.9,0-3.6,1.2-4.3,3l-15.7,42.6
			c-0.3,0.9-0.2,1.9,0.3,2.7c0.6,0.8,1.4,1.3,2.4,1.3h33.9l1.2-3.2h-25.7c-0.7,0-1.3-0.3-1.7-0.9c-0.4-0.5-0.5-1.2-0.2-1.9l6.4-17.4
			h24.4l1.2-3.2h-24.4l6.3-17.2c0.6-1.5,2-2.5,3.6-2.5h25.9l1.2-3.2H455.8z M541.2,34.9c-1.4,0-2.8,0.6-3.7,1.7l-25.9,30.3l-4-31
			c-0.1-0.6-0.6-1-1.2-1h-5.8c-1.9,0-3.6,1.2-4.2,3l-17.2,46.6h8.2c0.8,0,1.5-0.5,1.8-1.2l10.9-29.5l2.6,19.9
			c0.2,1.6,1.6,2.9,3.3,2.9h4.9c1,0,1.9-0.4,2.5-1.2l19-22l-11.5,31.2h8.2c0.8,0,1.5-0.5,1.8-1.2l17.2-46.7c0.1-0.4,0.1-0.8-0.2-1.2
			c-0.2-0.3-0.6-0.4-1-0.4H541.2z M558.7,34.9c-1.9,0-3.6,1.2-4.3,3l-15.7,42.6c-0.3,0.9-0.2,1.9,0.3,2.7c0.6,0.8,1.4,1.3,2.4,1.3
			h33.9l1.2-3.2h-25.7c-0.7,0-1.3-0.3-1.7-0.9c-0.4-0.5-0.5-1.2-0.2-1.9l6.4-17.4h24.4l1.2-3.2h-24.4l6.3-17.2
			c0.5-1.5,2-2.5,3.6-2.5h25.9l1.2-3.2H558.7z M634.6,34.9l-12.9,35.1l-11.9-33.6c-0.3-0.9-1.1-1.5-2.1-1.5h-6.1
			c-1.3,0-2.5,0.8-2.9,2l-17.5,47.5h8.2c0.8,0,1.5-0.5,1.8-1.2l12.5-34l11.7,33.5c0.4,1,1.3,1.7,2.4,1.7h5.8c1.3,0,2.5-0.8,2.9-2
			l17.5-47.5H634.6z M766.7,8.5l-65,65c-0.7,0.7-1.1,1.6-1.1,2.6V87c0,0.7,0.9,1.1,1.4,0.6l51-51c0.5-0.5,1.4-0.1,1.4,0.6v15.6
			c0,0.7,0.9,1.1,1.4,0.6l12-12c0.2-0.2,0.2-0.4,0.2-0.6V9.1c0-0.5-0.4-0.8-0.8-0.8C767.1,8.3,766.9,8.4,766.7,8.5 M825.5,0
			c-0.2,0-0.4,0.1-0.5,0.2l-73.6,73.6c-0.2,0.2-0.2,0.4-0.2,0.6v26.5c0,0.7,0.9,1.1,1.4,0.6l48.9-48.9c0.5-0.5,1.4-0.2,1.4,0.6v31.5
			c0,0.7,0.9,1.1,1.4,0.6l21.9-21.9c0.2-0.2,0.2-0.4,0.2-0.6V0.8C826.3,0.3,825.9,0,825.5,0L825.5,0z"/>
	</defs>
	<clipPath id="SVGID_2_">
		<use xlink:href="#SVGID_1_"  overflow="visible"/>
	</clipPath>
	
		<linearGradient id="SVGID_3_" gradientUnits="userSpaceOnUse" x1="0" y1="162.5488" x2="1" y2="162.5488" gradientTransform="matrix(815.7162 -143.8328 -143.8328 -815.7162 23391.7695 132745.6719)">
		<stop  offset="0" style="stop-color:#ffffff"/>
		<stop  offset="0.6793" style="stop-color:#ffffff"/>
		<stop  offset="0.9997" style="stop-color:#f4f5f5"/>
		<stop  offset="1" style="stop-color:#f4f5f5"/>
	</linearGradient>
	<polygon clip-path="url(#SVGID_2_)" fill="url(#SVGID_3_)" points="-27.8,4.9 801.4,-141.3 854.1,157.6 24.9,303.9 	"/>
</g>
</svg>
